<?xml version="1.0" encoding="UTF-8" standalone="no"?>
<svg
   viewBox="0 0 63.906 72"
   version="1.1"
   id="svg14"
   sodipodi:docname="cb-cannonballer.svg"
   inkscape:version="1.4.2 (ebf0e940, 2025-05-08)"
   xmlns:inkscape="http://www.inkscape.org/namespaces/inkscape"
   xmlns:sodipodi="http://sodipodi.sourceforge.net/DTD/sodipodi-0.dtd"
   xmlns="http://www.w3.org/2000/svg"
   xmlns:svg="http://www.w3.org/2000/svg">
  <defs
     id="defs14" />
  <sodipodi:namedview
     id="namedview14"
     pagecolor="#ffffff"
     bordercolor="#000000"
     borderopacity="0.25"
     inkscape:showpageshadow="2"
     inkscape:pageopacity="0.0"
     inkscape:pagecheckerboard="0"
     inkscape:deskcolor="#d1d1d1"
     inkscape:zoom="11.391732"
     inkscape:cx="31.909108"
     inkscape:cy="36.034907"
     inkscape:window-width="2096"
     inkscape:window-height="1316"
     inkscape:window-x="0"
     inkscape:window-y="25"
     inkscape:window-maximized="0"
     inkscape:current-layer="svg14" />
  <path
     d="M 63.779,24.883 C 62.294,9.751 48.774,-1.352 33.644,0.133 23.703,1.108 15.132,7.396 11.123,16.602 c -0.168,0.068 -0.335,0.137 -0.498,0.207 -0.743,0.316 -1.373,1.067 -2.028,3.705 -0.193,0.779 -0.628,2.666 -0.482,3.375 0.073,0.352 0.234,0.703 0.789,1.387 a 28.4907,28.4907 0 0 0 -0.01,4.974 c 0.116,1.364 0.682,3.428 1.915,5.126 0.417,0.574 1.992,2.46 5.998,4.68 L 16.336,40.71 C 15.584,40.478 14.951,40.347 13.99,40.243 l -4.015,6.271 -2.171,0.562 -1.983,2.443 c -0.108,0.728 0.003,2.845 0.573,4.905 L 1.826,64.281 7.15,56.464 c 0.346,0.702 0.769,1.326 1.283,1.792 l 0.534,-0.267 -0.378,0.86 C 7.492,59.017 6.402,59.65 5.928,60.038 L 5.618,62.576 5.487,62.928 0,71.907 4.494,67.025 c 0.054,0.677 0.191,1.26 0.256,1.511 0.277,1.051 0.864,2.783 2.988,3.464 l 1.27,-1.396 c 0.216,0.303 0.782,0.918 1.805,1.303 l 9.453,-8.954 0.362,1.518 -5.346,5.531 7.779,-5.473 c 1.881,-0.138 4.134,-0.73 6.135,-1.413 l 0.056,-3.807 3.39,-3.782 c 0.006,-0.508 -0.117,-1.235 -0.188,-1.524 l 1.862,-2.308 c 1.633,0.214 3.285,0.24 4.922,0.08 3.234,-0.317 6.402,-1.369 9.181,-3.044 5.194,-0.96 8.866,-3.286 11.502,-7.289 0.631,-0.331 1.013,-0.61 1.271,-0.925 0.789,-0.959 2.308,-4.278 1.781,-5.957 0.844,-3.109 1.123,-6.444 0.806,-9.677"
     fill="#ffffff"
     id="path1"
     style="display:inline" />
  <path
     d="m 7.309,50.123 c -0.056,0.624 0.405,4.786 1.545,6.205 l 1.753,-0.873 2.334,-0.536 1.079,-2.749 1.252,-0.637 -2.543,4.961 c -0.56,-0.207 -1.028,-0.316 -1.269,-0.361 l -1.865,4.24 C 8.506,60.164 7.366,60.926 7.366,60.926 L 7.12,62.944 6.108,65.656 c -0.365,1.168 0.283,3.98 1.268,4.46 l 2.292,-2.521 c 0.06,1.011 0.379,2.122 0.909,2.418 l 8.796,-8.33 c -0.013,-0.302 -0.141,-0.71 -0.39,-1.142 l 2.575,-1.91 0.106,0.977 -0.524,0.378 0.72,3.025 c 1.672,0.108 3.879,-0.396 5.816,-1.02 l 0.048,-3.278 3.336,-3.725 c -0.034,-0.461 -0.152,-0.893 -0.329,-1.296 l 2.943,-3.649 c 1.757,0.306 3.575,0.383 5.414,0.203 3.196,-0.314 6.179,-1.361 8.775,-2.977 5.695,-0.986 8.861,-3.612 10.992,-7.013 0.511,-0.246 0.98,-0.509 1.148,-0.714 0.74,-0.9 1.779,-3.676 1.501,-4.523 -0.046,-0.141 -0.094,-0.275 -0.143,-0.41 0.891,-3.047 1.206,-6.33 0.887,-9.576 C 60.848,10.746 48.083,0.261 33.794,1.663 23.843,2.639 15.825,9.12 12.287,17.795 c -0.352,0.135 -0.706,0.277 -1.061,0.428 -0.814,0.346 -1.687,4.968 -1.607,5.356 0.045,0.219 0.495,0.766 0.879,1.201 -0.199,1.741 -0.23,3.527 -0.075,5.339 0.089,1.038 0.526,2.837 1.628,4.355 0.363,0.499 2.09,2.597 7.036,5.042 l -2.185,3.038 C 15.719,42.046 14.75,41.906 14.75,41.906 l -3.807,5.946 -2.265,0.586 z"
     fill="#003d79"
     id="path2"
     style="display:inline;fill:#0021a5;fill-opacity:1" />
  <path
     d="m 18.108,12.567 c 1.872,-2.287 4.108,-4.166 6.603,-5.582 2.827,-1.603 5.984,-2.61 9.316,-2.938 a 23.6246,23.6246 0 0 1 10.427,1.324 c 2.155,2.478 2.638,6.68 0.604,10.438 -1.341,-0.482 -2.759,-0.924 -4.141,-1.266 -2.672,-0.662 -5.208,-0.951 -6.78,-0.441 -1.101,0.358 -2.569,1.178 -3.832,2.225 -2.363,-0.483 -6.929,-1.086 -12.336,-0.111 -0.861,0.154 -1.743,0.35 -2.642,0.592 a 24.0304,24.0304 0 0 1 2.781,-4.241 m 5.541,14.229 c -0.624,1.992 -1.506,4.571 -3.643,5.856 -0.446,0.268 -0.946,0.479 -1.511,0.616 -1.641,0.402 -3.056,0.222 -4.093,-0.52 -0.896,-0.641 -1.492,-1.711 -1.596,-2.861 -0.253,-2.824 -0.014,-5.617 0.685,-8.277 2.907,-0.756 8.248,-1.656 12.973,-0.986 -0.309,0.479 -0.597,0.967 -0.863,1.463 -0.843,1.568 -1.478,3.197 -1.952,4.709 m 28.487,16.986 c 1.933,-2 3.46,-4.4 4.448,-7.076 0.181,-0.488 0.343,-0.986 0.487,-1.492 0.561,0.811 0.898,1.435 1.099,1.907 -0.188,0.398 -0.386,0.786 -0.595,1.161 -1.423,2.556 -3.316,4.518 -5.439,5.5 m 7.747,-12.087 c -0.5,-0.753 -0.972,-1.311 -1.276,-1.642 0.172,-0.796 0.252,-1.557 0.247,-2.206 -0.011,-1.49 -0.412,-2.784 -1.265,-4.011 -0.621,-0.893 -1.482,-1.749 -2.606,-2.618 1.018,-2.663 1.045,-6.003 -0.095,-8.765 a 23.8674,23.8674 0 0 1 3.195,5.114 c 1.086,2.36 1.804,4.941 2.072,7.671 0.216,2.209 0.103,4.394 -0.272,6.457"
     fill="#ffffff"
     id="path3"
     style="display:inline" />
  <path
     d="m 48.692,37.228 c 0.847,-0.192 1.519,-0.589 1.955,-1.118 1.103,0.512 2.114,0.541 3.053,0.273 0.292,-0.083 0.568,-0.192 0.834,-0.317 -0.781,2.038 -1.925,3.889 -3.349,5.479 -0.269,-1.693 -1.351,-3.423 -2.493,-4.317 m -6.067,-5.036 c -0.532,0.533 -0.706,1.132 -0.613,1.729 -1.932,-0.799 -4.858,-0.875 -7.125,0.332 -0.922,0.49 -2.622,1.604 -3.53,1.418 -0.494,-0.108 -0.682,0.648 -0.291,1.207 0.683,0.965 1.944,1.629 3.732,1.793 -0.001,0.015 0.427,3.127 3.961,2.464 -0.011,0.029 0.912,2.762 3.979,1.614 1.875,2.582 3.92,0.901 3.9,0.956 0.392,0.404 0.755,0.665 1.086,0.824 -0.455,0.3 -0.923,0.579 -1.405,0.838 a 17.742,17.742 0 0 1 -2.364,1.052 c -0.302,0.109 -0.608,0.209 -0.918,0.303 -0.448,0.135 -0.903,0.251 -1.365,0.351 -0.405,0.087 -0.815,0.16 -1.23,0.22 -0.255,0.036 -0.513,0.066 -0.772,0.092 a 17.7925,17.7925 0 0 1 -2.421,0.073 17.581,17.581 0 0 1 -1.734,-0.152 C 35.047,47.243 34.583,47.16 34.123,47.058 a 17.7643,17.7643 0 0 1 -6.48,-2.87 c -2.792,-1.986 -4.938,-4.723 -6.199,-7.857 1.339,-0.531 2.431,-1.278 3.321,-2.119 0.226,-0.213 0.44,-0.434 0.642,-0.657 0.454,-0.505 0.846,-1.03 1.182,-1.552 0.215,-0.332 0.407,-0.663 0.58,-0.986 0.273,-0.511 0.495,-1.003 0.678,-1.453 0.126,-0.313 0.232,-0.603 0.322,-0.865 0.094,-0.276 0.169,-0.521 0.229,-0.726 0.064,-0.215 0.129,-0.423 0.197,-0.623 0.104,-0.308 0.214,-0.599 0.333,-0.876 0.206,-0.485 0.438,-0.931 0.707,-1.357 -0.019,0.412 0.032,0.771 0.191,1.034 2.331,3.869 9.606,5.386 11.566,5.434 0.921,0.022 1.941,-0.16 2.801,-0.406 2.313,0.213 5.193,1.612 4.365,3.302 -0.58,1.178 -4.672,1.611 -5.933,-2.289"
     fill="#ffffff"
     id="path5"
     style="display:inline" />
  <path
     d="m 56.687,27.545 c -0.2,-1.366 -2.105,-3.563 -3.779,-3.939 -0.938,-0.209 -1.769,0.115 -2.285,0.891 -0.932,1.401 -1.426,5.242 -0.2,7.678 0.572,1.137 1.297,1.701 2.196,1.701 0.422,0 0.884,-0.125 1.385,-0.375 1.567,-0.778 3.055,-3.415 2.683,-5.956 m -3.167,4.981 c -0.085,0.041 -0.167,0.08 -0.247,0.113 -0.699,0.291 -1.246,0.222 -1.812,-0.828 l 3.477,-3.558 C 54.933,28.205 54.926,28.157 54.92,28.11 54.85,27.634 54.376,26.886 53.759,26.248 l -2.957,3.027 c -0.019,-0.274 -0.024,-0.55 -0.019,-0.822 l 2.55,-2.608 c -0.199,-0.172 -0.407,-0.326 -0.615,-0.452 l -1.845,1.892 c 0.129,-0.961 0.38,-1.771 0.656,-2.185 a 0.709,0.709 0 0 1 0.037,-0.053 c 1.101,-1.495 3.867,1.452 4.043,2.655 0.308,2.104 -0.951,4.259 -2.089,4.824 M 44.35,18 c -5.075,-1.997 -8.186,-1.781 -9.789,0.682 l -0.131,0.199 c -0.67,1.011 -1.79,2.702 -1.255,5.245 0.441,2.101 3.091,3.124 4.845,3.802 0.18,0.069 0.344,0.133 0.483,0.189 1.352,0.551 2.635,0.828 3.84,0.828 1.017,0 1.979,-0.197 2.88,-0.591 2.755,-1.204 3.851,-3.811 4.042,-4.322 C 49.877,22.404 49.521,20.036 44.35,18 m 3.624,5.547 c -0.375,0.998 -1.765,3.502 -4.708,3.947 -1.161,0.176 -2.564,0.031 -4.241,-0.654 -0.179,-0.072 -0.394,-0.154 -0.632,-0.247 l 7.359,-5.284 c -0.746,-0.618 -1.826,-1.188 -3.125,-1.698 -0.092,-0.036 -0.184,-0.072 -0.274,-0.107 l -7.308,5.245 C 34.821,24.514 34.652,24.26 34.564,23.986 l 6.758,-4.854 c -0.506,-0.171 -0.973,-0.31 -1.407,-0.42 l -5.497,3.95 c 0.051,-1.467 0.809,-2.474 1.301,-3.229 0.26,-0.399 0.614,-0.787 1.164,-1.055 1.151,-0.559 3.161,-0.592 6.963,0.904 2.937,1.158 4.751,2.605 4.128,4.265"
     fill="#ffffff"
     id="path7"
     style="display:inline" />
  <path
     d="m 29.438,44.39 c -0.019,0.07 0.01,0.149 0.075,0.206 0.147,0.13 0.3,0.258 0.454,0.383 0.053,0.044 0.122,0.068 0.188,0.068 a 0.181,0.181 0 0 0 0.04,-0.004 c 0.73,-0.111 1.451,-0.261 2.142,-0.44 0.077,-0.02 0.133,-0.075 0.147,-0.145 0.014,-0.069 -0.018,-0.141 -0.081,-0.187 -0.045,-0.033 -0.09,-0.065 -0.134,-0.1 0.18,-0.57 0.402,-1.134 0.661,-1.675 a 0.1584,0.1584 0 0 0 -0.04,-0.19 c -0.098,-0.088 -0.194,-0.177 -0.289,-0.268 -0.049,-0.046 -0.122,-0.067 -0.199,-0.057 -0.077,0.011 -0.143,0.052 -0.174,0.11 -0.261,0.48 -0.495,0.981 -0.694,1.491 -0.027,0.068 -0.004,0.146 0.059,0.197 0.055,0.046 0.11,0.091 0.166,0.136 -0.696,0.147 -1.419,0.262 -2.15,0.342 -0.085,0.011 -0.151,0.061 -0.171,0.133 m 5.053,-0.854 c -0.11,-0.072 -0.219,-0.145 -0.327,-0.22 -0.055,-0.038 -0.13,-0.048 -0.201,-0.028 -0.074,0.021 -0.13,0.07 -0.15,0.133 a 12.492,12.492 0 0 0 -0.391,1.534 c -0.014,0.07 0.022,0.14 0.093,0.182 0.061,0.036 0.122,0.071 0.183,0.106 -0.64,0.236 -1.19,0.407 -1.872,0.583 -0.082,0.021 -0.137,0.079 -0.143,0.153 -0.005,0.07 0.036,0.143 0.109,0.188 0.171,0.108 0.341,0.21 0.505,0.306 0.046,0.027 0.1,0.041 0.153,0.041 a 0.248,0.248 0 0 0 0.077,-0.012 c 0.681,-0.209 1.227,-0.414 1.858,-0.682 0.072,-0.031 0.117,-0.094 0.118,-0.164 0,-0.067 -0.043,-0.132 -0.112,-0.167 -0.05,-0.024 -0.1,-0.051 -0.149,-0.075 0.066,-0.573 0.174,-1.145 0.322,-1.701 0.018,-0.069 -0.01,-0.137 -0.073,-0.177 M 28.595,27.348 c 0.288,0.097 0.576,0.199 0.861,0.312 0.025,0.011 0.051,0.016 0.074,0.016 0.059,0 0.107,-0.029 0.131,-0.085 0.056,-0.129 0.114,-0.256 0.175,-0.383 0.03,-0.063 0.022,-0.156 -0.023,-0.247 C 29.77,26.873 29.7,26.8 29.627,26.768 29.396,26.664 29.162,26.566 28.928,26.471 28.81,26.748 28.699,27.04 28.595,27.348 m -2.254,13.63 c 0.046,0.068 0.126,0.117 0.209,0.128 0.792,0.099 1.585,0.158 2.357,0.179 h 0.006 c 0.08,0 0.152,-0.036 0.189,-0.095 0.04,-0.064 0.036,-0.144 -0.013,-0.209 -0.033,-0.045 -0.065,-0.089 -0.098,-0.133 0.401,-0.508 0.842,-0.995 1.31,-1.447 0.057,-0.054 0.069,-0.132 0.029,-0.196 -0.067,-0.112 -0.132,-0.226 -0.196,-0.339 -0.033,-0.059 -0.101,-0.101 -0.182,-0.111 -0.081,-0.012 -0.159,0.01 -0.211,0.055 -0.448,0.391 -0.876,0.811 -1.272,1.25 -0.053,0.059 -0.057,0.141 -0.012,0.211 0.04,0.062 0.08,0.122 0.121,0.183 a 24.651,24.651 0 0 1 -2.349,-0.278 c -0.088,-0.016 -0.17,0.014 -0.215,0.075 -0.046,0.063 -0.046,0.149 0.001,0.226 0.107,0.166 0.216,0.336 0.326,0.501 m 1.885,2.237 h 0.003 c 0.768,-0.01 1.532,-0.057 2.27,-0.14 0.081,-0.009 0.147,-0.056 0.173,-0.122 0.027,-0.066 0.009,-0.144 -0.047,-0.2 a 6.453,6.453 0 0 1 -0.117,-0.117 c 0.292,-0.551 0.626,-1.085 0.992,-1.59 0.044,-0.062 0.042,-0.139 -0.006,-0.197 a 12.198,12.198 0 0 1 -0.245,-0.307 c -0.041,-0.053 -0.113,-0.084 -0.192,-0.085 -0.08,0 -0.152,0.031 -0.194,0.084 -0.357,0.443 -0.69,0.912 -0.991,1.396 -0.04,0.065 -0.029,0.146 0.025,0.208 0.048,0.054 0.097,0.107 0.146,0.16 -0.742,0.051 -1.506,0.065 -2.271,0.04 h -0.008 c -0.084,0 -0.155,0.04 -0.188,0.105 -0.032,0.067 -0.018,0.151 0.04,0.219 0.128,0.151 0.26,0.302 0.393,0.448 0.054,0.061 0.137,0.098 0.217,0.098 m -4.17,-7.149 c 0.024,0.081 0.089,0.151 0.171,0.184 0.785,0.323 1.586,0.608 2.38,0.847 0.028,0.009 0.056,0.013 0.084,0.013 0.054,0 0.105,-0.016 0.144,-0.046 0.064,-0.05 0.088,-0.128 0.062,-0.205 -0.019,-0.052 -0.036,-0.103 -0.053,-0.153 0.603,-0.375 1.237,-0.716 1.885,-1.012 0.076,-0.035 0.115,-0.105 0.098,-0.18 -0.029,-0.126 -0.057,-0.252 -0.082,-0.379 -0.013,-0.066 -0.069,-0.126 -0.149,-0.16 -0.077,-0.032 -0.163,-0.035 -0.231,-0.009 -0.605,0.244 -1.2,0.522 -1.769,0.829 -0.074,0.041 -0.108,0.119 -0.085,0.199 0.02,0.072 0.04,0.143 0.062,0.215 -0.788,-0.272 -1.578,-0.592 -2.352,-0.947 -0.083,-0.039 -0.175,-0.035 -0.24,0.008 -0.069,0.047 -0.1,0.131 -0.078,0.218 0.045,0.191 0.098,0.385 0.153,0.578 m 3.586,3.214 c 0.067,0 0.128,-0.024 0.169,-0.069 0.053,-0.058 0.062,-0.139 0.024,-0.21 a 5.0435,5.0435 0 0 1 -0.076,-0.145 c 0.505,-0.45 1.047,-0.871 1.61,-1.253 0.068,-0.046 0.093,-0.121 0.063,-0.19 -0.049,-0.121 -0.096,-0.242 -0.142,-0.363 -0.023,-0.063 -0.086,-0.114 -0.168,-0.137 -0.08,-0.021 -0.163,-0.013 -0.224,0.024 -0.531,0.323 -1.047,0.681 -1.533,1.06 -0.064,0.051 -0.083,0.132 -0.048,0.208 0.03,0.067 0.062,0.134 0.093,0.2 -0.788,-0.161 -1.587,-0.365 -2.378,-0.609 -0.086,-0.026 -0.175,-0.01 -0.23,0.044 -0.058,0.056 -0.073,0.142 -0.038,0.224 0.078,0.184 0.16,0.367 0.244,0.547 0.035,0.075 0.109,0.136 0.192,0.157 0.797,0.21 1.602,0.381 2.396,0.509 0.016,10e-4 0.031,0.003 0.046,0.003 m -2.234,-5.728 c 0.228,0.124 0.455,0.244 0.684,0.36 -0.009,-0.075 -0.018,-0.15 -0.026,-0.227 -0.009,-0.083 0.039,-0.155 0.121,-0.184 0.642,-0.222 1.306,-0.41 1.974,-0.561 0.073,-0.017 0.16,-10e-4 0.234,0.042 0.077,0.047 0.125,0.114 0.125,0.182 0.003,0.13 0.009,0.258 0.017,0.387 0.005,0.076 -0.047,0.14 -0.131,0.162 -0.723,0.199 -1.438,0.443 -2.127,0.728 0.008,0.053 0.017,0.107 0.026,0.159 0.015,0.081 -0.023,0.155 -0.098,0.194 a 0.2456,0.2456 0 0 1 -0.114,0.027 0.2924,0.2924 0 0 1 -0.122,-0.027 c -0.403,-0.183 -0.806,-0.379 -1.206,-0.586 0.228,-0.212 0.441,-0.432 0.643,-0.656 M 26.59,32 c 0.61,-0.128 1.227,-0.226 1.846,-0.295 0.09,-0.011 0.152,-0.064 0.162,-0.14 0.016,-0.129 0.034,-0.258 0.055,-0.386 0.011,-0.07 -0.026,-0.146 -0.097,-0.203 -0.067,-0.053 -0.155,-0.083 -0.231,-0.077 -0.386,0.026 -0.771,0.065 -1.155,0.114 -0.173,0.324 -0.365,0.655 -0.58,0.987 m 1.257,-2.439 c 0.332,0.035 0.664,0.078 0.996,0.133 0.012,0.001 0.023,0.002 0.035,0.002 0.075,0 0.132,-0.041 0.148,-0.11 0.028,-0.131 0.058,-0.262 0.092,-0.392 0.016,-0.066 -0.01,-0.152 -0.071,-0.229 -0.059,-0.074 -0.14,-0.127 -0.216,-0.144 -0.22,-0.047 -0.44,-0.088 -0.661,-0.126 -0.091,0.263 -0.197,0.554 -0.323,0.866 m 10.73,17.896 c 0.131,-0.105 0.259,-0.216 0.385,-0.323 0.059,-0.05 0.079,-0.122 0.05,-0.185 -0.027,-0.059 -0.089,-0.098 -0.167,-0.107 -0.058,-0.006 -0.115,-0.014 -0.172,-0.021 -0.156,-0.503 -0.274,-1.023 -0.35,-1.548 -0.01,-0.066 -0.06,-0.117 -0.132,-0.135 -0.129,-0.03 -0.257,-0.063 -0.385,-0.099 -0.063,-0.019 -0.136,-0.006 -0.195,0.031 -0.062,0.04 -0.097,0.104 -0.092,0.166 v 0.001 c 0.04,0.482 0.112,0.967 0.219,1.44 0.014,0.064 0.072,0.114 0.151,0.129 0.068,0.014 0.137,0.026 0.205,0.038 -0.273,0.209 -0.557,0.412 -0.846,0.61 0.443,0.019 0.886,0.02 1.329,0.003 m 1.866,-0.166 c 0.086,-0.087 0.175,-0.172 0.259,-0.26 -0.07,0.002 -0.139,0.002 -0.209,0.002 h -0.001 c -0.08,0 -0.147,-0.035 -0.175,-0.092 a 9.3275,9.3275 0 0 1 -0.513,-1.297 c -0.019,-0.061 0.004,-0.128 0.06,-0.177 0.05,-0.044 0.117,-0.068 0.186,-0.062 0.135,0.012 0.27,0.021 0.406,0.027 0.074,0.004 0.134,0.043 0.157,0.102 0.183,0.473 0.409,0.931 0.67,1.362 0.06,-0.004 0.121,-0.008 0.181,-0.013 0.079,-0.004 0.148,0.019 0.187,0.066 0.028,0.034 0.034,0.078 0.023,0.12 -0.406,0.09 -0.817,0.163 -1.231,0.222 m -6.319,-0.234 c 0.582,-0.252 1.157,-0.525 1.698,-0.823 -0.065,-0.024 -0.131,-0.049 -0.196,-0.074 -0.075,-0.028 -0.123,-0.089 -0.124,-0.159 -0.005,-0.504 0.024,-1.016 0.085,-1.517 0.007,-0.063 0.055,-0.121 0.123,-0.152 0.065,-0.029 0.14,-0.029 0.199,-10e-4 0.119,0.057 0.238,0.11 0.359,0.163 0.067,0.03 0.107,0.091 0.103,0.16 -0.035,0.552 -0.03,1.109 0.018,1.659 0.054,0.017 0.107,0.034 0.161,0.05 0.073,0.023 0.128,0.077 0.141,0.141 0.014,0.068 -0.018,0.136 -0.084,0.178 -0.351,0.217 -0.717,0.426 -1.091,0.625 -0.468,-0.066 -0.932,-0.15 -1.392,-0.25 m 9.832,-0.639 a 7.7023,7.7023 0 0 1 -0.907,-1.035 c -0.035,-0.05 -0.102,-0.072 -0.178,-0.063 -0.141,0.021 -0.281,0.038 -0.421,0.053 a 0.2693,0.2693 0 0 0 -0.175,0.09 c -0.048,0.057 -0.057,0.127 -0.024,0.181 0.232,0.38 0.498,0.743 0.787,1.077 0.31,-0.093 0.616,-0.193 0.918,-0.303 M 46.32,45.367 A 7.012,7.012 0 0 1 45.415,44.79 c -0.046,-0.035 -0.117,-0.041 -0.19,-0.016 -0.145,0.049 -0.288,0.096 -0.432,0.14 -0.066,0.021 -0.126,0.063 -0.16,0.116 -0.04,0.065 -0.035,0.136 0.014,0.18 0.241,0.22 0.499,0.424 0.769,0.609 0.306,-0.143 0.607,-0.293 0.904,-0.452 M 40.919,14.543 c 1.381,0.342 2.8,0.783 4.14,1.266 2.034,-3.758 1.551,-7.96 -0.604,-10.438 A 23.7034,23.7034 0 0 0 40.512,4.305 c 1.85,2.135 2.837,5.668 0.407,10.238 m 16.669,9.293 c 0.62,-1.764 0.907,-3.993 0.494,-6.269 a 23.897,23.897 0 0 0 -3.195,-5.114 c 1.14,2.762 1.113,6.102 0.095,8.765 1.124,0.869 1.985,1.726 2.606,2.618"
     fill="#e31b23"
     id="path8"
     style="display:inline;fill:#fa4616;fill-opacity:1" />
  <path
     d="m 29.968,50.041 -11.87,9.422 a 4.7739,4.7739 0 0 0 -0.614,-0.461 4.8184,4.8184 0 0 0 -0.583,-0.316 l 4.446,-4.021 1.71,-0.264 -2.644,-0.913 -4.775,5.015 C 15.425,58.23 15.18,57.98 14.924,57.758 a 6.308,6.308 0 0 0 -0.683,-0.513 l 4.468,-7.46 2.436,-1.24 c -0.003,-0.603 -0.08,-1.148 -0.209,-1.649 l 1.394,-0.656 1.688,-0.795 -0.566,5.945 6.186,-2.491 c 0.4,0.159 0.805,0.307 1.216,0.44 z"
     fill="#ffffff"
     id="path10"
     style="display:inline" />
  <path
     d="m 16.511,60.073 -5.304,5.831 c -0.118,0.382 -0.254,1.056 0.052,1.554 l 6.355,-6.021 C 17.433,60.768 16.96,60.336 16.511,60.073 M 14.479,60.124 7.833,67.46 C 7.448,66.667 7.967,65.33 7.967,65.33 l 0.768,-1.999 0.1,-1.339 c 0,0 0.428,-0.273 1.088,-0.248 l 0.152,0.85 2.006,-4.353 c 0.449,0.045 2.196,0.768 2.398,1.883 m 10.419,-3.972 -0.324,1.077 -1.821,0.69 0.163,0.962 0.43,-0.309 0.003,-0.337 0.783,-0.179 -0.805,2.439 0.01,-1.064 -0.806,0.588 0.419,1.369 c 0,0 2.063,-0.105 3.525,-0.724 l 0.053,-2.36 2.79,-3.678 c -0.172,-0.497 -0.422,-0.901 -0.709,-1.23 z M 15.59,43.954 11.871,49.196 9.796,49.728 9.092,50.626 c -0.041,0.966 0.257,2.788 0.661,3.789 l 1.96,-1.386 -0.564,0.976 0.94,-0.39 0.946,-2.349 6.147,-3.438 C 19.255,45.234 15.59,43.954 15.59,43.954 m 14.048,4.944 -6.186,2.491 0.567,-5.945 -1.688,0.795 -0.493,7.174 8.13,-3.371 0.885,-0.703 c -0.411,-0.135 -0.816,-0.282 -1.215,-0.441"
     fill="#e31b23"
     id="path12"
     style="display:inline;fill:#fa4616;fill-opacity:1" />
</svg>
